<?xml version="1.0" encoding="UTF-8"?><svg id="CLEVELAND_LABEL" xmlns="http://www.w3.org/2000/svg" viewBox="0 0 863.57 220.54"><polygon points="174.6 164.9 139.52 164.9 81.64 164.9 81.64 220.54 139.52 220.54 174.6 220.54 742.22 220.54 742.22 164.9 174.6 164.9" style="fill:none;"/><polygon points="174.6 164.9 139.52 164.9 81.64 164.9 81.64 220.54 139.52 220.54 174.6 220.54 742.22 220.54 742.22 164.9 174.6 164.9" style="fill:none;"/><path d="m219.08,179.03l.62,10.72h-1.85c-3.16-6.65-4.35-8.95-6.9-8.95h-.99v22.67c0,2.09.57,2.26,3.24,2.55v1.85h-15.48v-1.85c2.67-.29,3.24-.45,3.24-2.55v-22.67h-.99c-2.55,0-3.74,2.3-6.9,8.95h-1.85l.62-10.72h27.22Z" style="fill:#fff;"/><path d="m222.87,180.06l-2.18-1.11v-1.4l9.2-1.85h1.44v13.59c1.48-1.93,3.82-4.15,7.68-4.15s6.36,2.22,6.36,6.73v12.77c0,1.23.66,1.36,2.18,1.48v1.72h-12.69v-1.72c1.52-.12,2.05-.25,2.05-1.48v-12.03c0-1.52-.49-2.55-2.55-2.55-1.15,0-2.09.21-3.04.53v14.04c0,1.23.53,1.36,2.05,1.48v1.72h-12.69v-1.72c1.52-.12,2.18-.25,2.18-1.48v-24.6Z" style="fill:#fff;"/><path d="m268.73,194.34v1.03h-13.02c0,4.52,2.55,7.39,6.16,7.39,2.59,0,4.56-.86,6.12-2.87l.86.53c-1.15,4.76-4.39,7.84-9.77,7.84-6.12,0-11-3.9-11-11.09s5.3-12.03,11.37-12.03,9.28,3.82,9.28,9.2Zm-12.98-.99h5.79c0-4.06-.66-6.41-2.63-6.41s-3,2.55-3.16,6.41Z" style="fill:#fff;"/><path d="m289.13,203.25c0,2.09,1.15,2.59,4.72,2.75v1.85h-16.55v-1.85c2.67-.29,2.83-.66,2.83-2.75v-19.63c0-2.09-.16-2.46-2.83-2.75v-1.85h14.95c8.13,0,11.91,3.7,11.91,8.75,0,5.83-3.98,9.12-12.36,9.12h-2.67v6.37Zm0-8.71h.53c3.7,0,5.75-2.63,5.75-6.78s-2.38-6.69-5.75-6.69h-.53v13.47Z" style="fill:#fff;"/><path d="m314.8,204.65c0,1.23.66,1.36,2.18,1.48v1.72h-12.81v-1.72c1.52-.12,2.18-.25,2.18-1.48v-24.6l-2.18-1.11v-1.4l9.2-1.85h1.44v28.95Z" style="fill:#fff;"/><path d="m338.01,203.34c0,.82.08,1.68,1.03,1.68.53,0,1.07-.12,1.27-.21l.29,1.23c-1.44,1.31-3.24,2.22-5.71,2.22s-4.31-1.23-5.05-3.41c-1.15,1.77-3.04,3.24-6.08,3.24-3.53,0-6.04-1.93-6.04-5.58s2.46-5.09,5.34-6.08l6.65-2.3v-4.52c0-1.64-.41-2.75-1.77-2.75-1.44,0-1.97,1.27-1.97,3.16,0,.99.16,2.01.41,3.04l-5.09.66c-1.23-.41-2.13-1.44-2.13-3,0-3.9,4.02-5.58,9.16-5.58,6,0,9.69,1.77,9.69,7.31v10.88Zm-8.29.29v-7.6l-1.64.62c-1.31.49-2.22,1.15-2.22,3.57,0,2.05.7,3.61,2.67,3.61.45,0,.78-.08,1.19-.21Z" style="fill:#fff;"/><path d="m352.19,204.65c0,1.23.66,1.36,2.18,1.48v1.72h-12.81v-1.72c1.52-.12,2.18-.25,2.18-1.48v-14.37l-2.18-1.4v-1.27l9.16-2.46h1.48v19.5Zm-8.46-25.09c0-2.18,1.6-4.06,4.35-4.06s4.35,1.89,4.35,4.06-1.64,4.06-4.35,4.06-4.35-1.89-4.35-4.06Z" style="fill:#fff;"/><path d="m371.86,192.62c0-1.52-.49-2.55-2.55-2.55-1.15,0-2.09.21-3.04.53v14.04c0,1.23.53,1.36,2.05,1.48v1.72h-12.69v-1.72c1.52-.12,2.18-.25,2.18-1.48v-14.37l-2.18-1.4v-1.27l9.16-2.46h1.64l-.16,4.15c1.48-1.93,3.82-4.15,7.68-4.15s6.36,2.22,6.36,6.73v12.77c0,1.23.66,1.36,2.18,1.48v1.72h-12.69v-1.72c1.52-.12,2.05-.25,2.05-1.48v-12.03Z" style="fill:#fff;"/><path d="m390.66,207.85v-1.85c2.67-.29,2.83-.66,2.83-2.75v-19.63c0-2.09-.16-2.46-2.83-2.75v-1.85h13.92c11.62,0,17.12,6,17.12,14.21,0,9.16-6.08,14.62-16.1,14.62h-14.95Zm11.83-26.77v21.84c0,2.42.9,2.88,2.59,2.88h.25c4.35,0,7.1-4.8,7.1-11.83,0-8.13-3.61-12.89-9.4-12.89h-.53Z" style="fill:#fff;"/><path d="m443.97,194.34v1.03h-13.02c0,4.52,2.55,7.39,6.16,7.39,2.59,0,4.56-.86,6.12-2.87l.86.53c-1.15,4.76-4.39,7.84-9.77,7.84-6.12,0-11-3.9-11-11.09s5.3-12.03,11.37-12.03,9.28,3.82,9.28,9.2Zm-12.98-.99h5.79c0-4.06-.66-6.41-2.63-6.41s-3,2.55-3.16,6.41Z" style="fill:#fff;"/><path d="m465.44,203.34c0,.82.08,1.68,1.03,1.68.53,0,1.07-.12,1.27-.21l.29,1.23c-1.44,1.31-3.24,2.22-5.71,2.22s-4.31-1.23-5.05-3.41c-1.15,1.77-3.04,3.24-6.08,3.24-3.53,0-6.04-1.93-6.04-5.58s2.46-5.09,5.34-6.08l6.65-2.3v-4.52c0-1.64-.41-2.75-1.77-2.75-1.44,0-1.97,1.27-1.97,3.16,0,.99.16,2.01.41,3.04l-5.09.66c-1.23-.41-2.14-1.44-2.14-3,0-3.9,4.02-5.58,9.16-5.58,6,0,9.69,1.77,9.69,7.31v10.88Zm-8.29.29v-7.6l-1.64.62c-1.31.49-2.22,1.15-2.22,3.57,0,2.05.7,3.61,2.67,3.61.45,0,.78-.08,1.19-.21Z" style="fill:#fff;"/><path d="m479.54,204.65c0,1.23.66,1.36,2.18,1.48v1.72h-12.81v-1.72c1.52-.12,2.18-.25,2.18-1.48v-24.6l-2.18-1.11v-1.4l9.2-1.85h1.44v28.95Z" style="fill:#fff;"/><path d="m503.14,194.34v1.03h-13.02c0,4.52,2.55,7.39,6.16,7.39,2.59,0,4.56-.86,6.12-2.87l.86.53c-1.15,4.76-4.39,7.84-9.77,7.84-6.12,0-11-3.9-11-11.09s5.3-12.03,11.37-12.03,9.28,3.82,9.28,9.2Zm-12.98-.99h5.79c0-4.06-.66-6.41-2.63-6.41s-3,2.55-3.16,6.41Z" style="fill:#fff;"/><path d="m514.94,203.87c0,1.81.9,1.93,3.2,2.26v1.72h-13.84v-1.72c1.52-.12,2.18-.25,2.18-1.48v-14.37l-2.18-1.4v-1.27l9.16-2.46h1.64l-.16,6.41c1.56-4.93,3.08-6.41,5.71-6.41,1.03,0,1.72.29,2.18.7v6.28h-1.07c-2.63,0-5.05.08-6.82,1.15v10.59Z" style="fill:#fff;"/><path d="m127.39,182.78h.05c-.26-1.09-.77-2.05-1.44-2.88-2.01-2.49-6.07-3.58-11.52-3.77v.06c2.93.58,6.53,2.69,7.56,5.88h.05c-.31-1.41-1.08-2.81-2.11-3.71,1.54.83,2.62,2.24,3.19,3.97h.05c-.36-1.53-1.18-2.88-2.21-3.84,1.34.77,2.62,2.17,3.19,3.97h.05c-.41-1.53-1.23-2.94-2.36-3.9,1.65.9,2.78,2.24,3.39,4.09h.05c-.41-1.66-1.39-3.13-2.52-4.09,1.18.64,2.83,2.11,3.5,4.16h.05c-.41-1.66-1.34-3.13-2.52-4.03,1.44.83,2.88,2.17,3.55,4.09Z" style="fill:#fff;"/><path d="m119.37,178.94c1.9,2.3,2.01,6.01,1.75,9.15-.21,1.92-.77,3.9-1.54,5.18.31-.7.46-1.47.77-3.01.46-2.37.62-5.82-.31-8.95-.36-1.15-.98-2.24-1.8-3.01l-.05.06c.77.83,1.29,1.98,1.54,3.07.72,3.07.62,6.4.1,8.76-.36,1.6-.72,2.43-1.18,3.2.41-.96.67-2.11.87-3.9.26-2.56.36-5.88-.72-9.02-.36-1.02-.93-1.98-1.65-2.62l-.05.06c.67.7,1.18,1.73,1.44,2.69.87,3.01.77,6.4.41,8.83-.26,1.98-.72,3.2-1.23,4.29.72-2.37.87-4.8.87-7.23,0-3.13-.26-7.29-2.57-9.21l-.05.06c2.11,2.17,2.11,6.01,2.11,9.15,0,2.81-.57,6.08-1.23,7.36.36-1.28.51-3.26.62-4.92.15-2.11.05-4.22-.1-6.33-.15-2.05-.77-4.35-2.16-5.63l-.05.06c1.29,1.41,1.7,3.58,1.8,5.63.21,4.09.1,9.02-1.03,11.7.51-2.05.57-4.48.57-6.52,0-2.75-.05-6.14-.46-8.19-.26-1.28-.72-1.98-1.44-2.88l-.05.06c.67.9.93,1.79,1.13,2.88.41,1.92.36,5.44.31,8.12-.05,2.88-.15,5.24-.87,7.16-.36.96-.87,1.73-1.59,2.17v.06c2.67,0,5.86-1.41,7.15-4.41.62-1.47.93-3.07,1.03-4.67.26-3.2-.1-7.16-2.26-9.27l-.05.06Z" style="fill:#fff;"/><path d="m103.24,176.22c.1,3.64.15,7.44.26,11.08.05,3.64.05,7.27.05,10.91s-.05,7.38-.2,11.02c0,.11.77.11.77,0-.1-3.64-.05-7.38-.05-11.02s0-7.27.05-10.91,0-7.5.05-11.08c0-.11-.92-.11-.92,0Z" style="fill:#fff;"/><path d="m130.28,176.28c.36,2.61.2,5.51.2,8.24v18.18c0,2.16.05,4.37-.26,6.53,0,.11.51.11.56,0,.26-2.1.15-4.43.15-6.53v-9.09c0-3.01.05-6.02.05-9.09,0-2.73.1-5.57-.26-8.24-.05-.11-.46-.11-.46,0Z" style="fill:#fff;"/><path d="m131.3,176.28c.26,2.16.2,4.37.2,6.59v17.67c0,2.84.1,5.85-.2,8.69-.05.11.56.11.56,0,.26-2.84.1-5.85.1-8.69s.05-5.91.05-8.86.05-5.85.05-8.81c0-2.16,0-4.6-.26-6.59,0-.11-.51-.06-.51,0Z" style="fill:#fff;"/><path d="m100.22,176.22c.15,3.58.26,7.44.26,11.08v10.91c0,3.64-.05,7.38-.26,11.02,0,.11.61.11.61,0,.1-3.64.15-7.38.15-10.96v-10.96c0-3.64,0-7.44-.1-11.08,0-.11-.67-.11-.67,0Z" style="fill:#fff;"/><path d="m99.25,176.22c.15,3.58.15,7.44.2,11.08s.05,7.27,0,10.91c-.05,3.64-.05,7.38-.26,11.02,0,.11.56.11.56,0,.15-3.64.2-7.38.2-11.02v-10.91c0-3.64,0-7.44-.2-11.08,0-.11-.51-.11-.51,0Z" style="fill:#fff;"/><path d="m101.24,176.22c.1,3.64.15,7.39.2,11.08.05,3.58.05,7.21.05,10.85s-.05,7.38-.26,11.08c0,.11.67.11.67,0,.05-3.64.1-7.44.1-11.08v-10.91c0-3.64.05-7.44-.05-11.02,0-.11-.72-.11-.72,0Z" style="fill:#fff;"/><path d="m102.27,176.22c.05,3.58.15,7.39.2,11.08.05,3.64.05,7.27.05,10.91s-.05,7.33-.2,11.02c0,.11.72.11.72,0-.05-3.64,0-7.38,0-11.02s.05-7.27.05-10.96v-11.02c0-.11-.82-.17-.82,0Z" style="fill:#fff;"/><path d="m98.22,176.22c.2,3.58.2,7.44.2,11.08s.05,7.27,0,10.96c-.05,3.58-.05,7.33-.31,10.96,0,.11.51.11.51,0,.26-3.64.31-7.38.31-10.96v-11.02c0-3.64,0-7.38-.26-11.02,0-.11-.46-.11-.46,0Z" style="fill:#fff;"/><path d="m136.27,176.28c0-.11-.87-.11-.87,0,.15,3.52.15,7.39.2,10.96.05,3.69.05,7.33.05,10.96s.1,7.38-.15,11.02c0,.11.77.11.77,0-.05-3.64-.1-7.38-.1-11.02-.05-3.64,0-7.27.05-10.96.05-3.58.2-7.44.05-10.96Z" style="fill:#fff;"/><path d="m148.79,193.49c0-8.01-.32-12.67-1.28-15.05-.55-1.36-1.74-2.27-3.53-2.27-.29,0-.73,0-.84.04h0s-.01.01-.01.01c-.05.06-.1.4-.1,1.25v15.68c0,3.92.05,7.44.05,12.84,0,2.03,0,2.7.06,2.99v.06c.02.06.04.1.07.13.09.11.32.17.69.17,1.79,0,3.11-.74,3.94-2.78.64-1.59.96-4.43.96-13.07Z" style="fill:#fff;"/><path d="m153.64,184.29c-.46-1.59-1.1-3.01-1.88-4.2l-.05.06c.73,1.25,1.37,2.78,1.74,4.2.32,1.19.46,2.39.6,3.58.23,2.44.32,4.89.18,7.33-.18,3.41-1.37,7.67-1.97,8.81.5-1.36.82-2.84,1.01-4.32.41-2.84.46-5.74.37-8.58-.05-1.59-.18-3.12-.41-4.66-.14-.97-.32-1.93-.6-2.84-.46-1.42-.96-2.9-1.83-4.15l-.05.06c.69,1.14,1.33,2.61,1.69,4.15.23.97.37,1.87.5,2.84.23,1.53.27,3.07.32,4.6.05,2.84-.05,5.79-.41,8.52-.23,1.7-.73,3.47-1.47,4.89.69-1.99.96-4.15,1.1-6.25.18-2.44.23-4.89.14-7.27-.05-1.53-.14-3.01-.32-4.54-.14-1.02-.32-1.99-.55-3.01-.41-1.76-.96-3.35-1.83-4.54l-.05.06c.78,1.25,1.37,2.95,1.69,4.54.18,1.02.37,1.99.46,3.01.18,1.48.23,3.01.27,4.49.05,2.39,0,4.83-.18,7.21-.23,2.39-.6,4.83-1.56,6.82.73-2.33.92-4.83,1.05-7.27.09-2.16.05-4.26.05-6.42,0-1.48-.09-3.01-.23-4.49-.09-1.14-.23-2.27-.46-3.41-.18-1.02-.46-2.05-.82-3.01-.27-.74-.6-1.48-1.05-2.1l-.05.06c.41.68.69,1.36.96,2.16.37,1.02.55,1.93.73,2.95.18,1.14.32,2.27.41,3.41.09,1.48.18,2.95.18,4.43,0,2.16.05,4.26-.09,6.36-.14,2.67-.46,5.34-1.47,7.84.46-1.93.69-3.98.78-5.91.09-1.59.14-3.18.14-4.83s-.05-3.24-.05-4.83c0-1.25-.09-2.44-.18-3.69-.09-1.08-.18-2.16-.37-3.24-.14-1.02-.32-1.99-.64-3.01-.23-.8-.6-1.59-1.05-2.27l-.05.06c.41.68.69,1.42.92,2.27.23.97.46,2.05.6,3.07.14,1.08.23,2.1.32,3.18.09,1.19.14,2.44.14,3.64,0,1.59.05,3.24.05,4.83s-.09,3.18-.18,4.77c-.09,1.42-.18,2.78-.46,4.15-.18.85-.37,1.65-.69,2.33.23-1.25.37-2.5.5-3.81.05-.97.14-1.99.14-2.95.05-1.25.05-2.44.05-3.64v-3.98c0-1.02-.05-2.1-.05-3.12s-.09-2.05-.14-3.01c-.09-1.02-.14-1.99-.27-3.01-.14-.97-.32-1.99-.55-2.95-.18-.8-.5-1.59-.92-2.22l-.05.06c.37.74.6,1.36.78,2.22.23.97.37,1.99.46,2.95.09.97.18,1.99.23,2.95.05,1.02.14,1.99.14,3.01s.05,2.1.05,3.12c0,1.36-.05,2.67-.05,3.98,0,1.19,0,2.39-.05,3.58-.05,1.02-.14,1.99-.18,2.95-.09,1.02-.18,1.99-.37,2.95-.27,1.42-.78,2.73-1.88,3.69l.05.06c2.34-.74,4.95-2.44,6.04-5.11,1.1-2.67,1.47-5.62,1.6-8.52.09-2.5.05-4.94-.27-7.39-.14-1.25-.37-2.44-.69-3.64Z" style="fill:#fff;"/><path d="m132.33,176.28c.26,2.16.2,4.49.2,6.7v17.44c0,2.9.1,5.91-.2,8.81,0,.11.61.11.67,0,.15-2.9.05-5.91.05-8.81v-8.69c0-2.95.05-5.85.05-8.75,0-2.16.1-4.66-.15-6.7,0-.11-.61-.11-.61,0Z" style="fill:#fff;"/><path d="m155.38,179.86c-2.61-2.33-5.86-3.41-8.79-3.75v.06c2.7.8,5.45,3.12,6.78,5.74l.05-.06c-.64-1.36-1.47-2.56-2.47-3.47,1.28.85,2.61,2.44,3.57,4.2l.05-.06c-.73-1.53-1.56-2.73-2.98-4.03,2.06,1.48,3.16,3.07,4.03,4.77l.05-.06c-.82-1.7-1.88-3.29-3.39-4.54,1.69,1.02,3.25,2.78,4.3,4.83l.05-.06c-.96-1.87-2.15-3.47-3.66-4.6,1.88,1.08,3.53,2.9,4.76,5.28l.05-.06c-1.01-2.05-2.15-3.58-4.08-5.11,2.06,1.31,3.8,3.12,5.04,5.45l.05-.06c-.87-1.82-2.01-3.29-3.39-4.49Z" style="fill:#fff;"/><path d="m81.64,164.9v55.64h92.96v-55.64h-92.96Zm33.01,45c-1.59,0-6.86.06-10.13.06-3.58,0-7.29-.08-10-.02,0,0-.03-.49.07-.49,2.56-.11,2.82-.11,2.92-.23.15-.17.26-.97.31-11.82v-9.77c0-10.57-.1-11.25-.26-11.42-.1-.11-.72-.11-2.92-.17-.15,0-.15-.57,0-.57,2.78,0,10.66-.05,16.16-.06v20.64h0v5.66c0,6.65,0,7.21.15,7.39.15.17.41.23,3.68.23.1,0,.15.57,0,.57Zm-1.5-11.78c-1.65,0-2.11-.13-2.26-.13-.03,0-.05,0-.07.01v-.82c.07.05.24.1.64.1,1.18,0,2.26-.58,3.03-2.49.62-1.54.87-3.45.87-8.76,0-4.03-.26-6.52-.87-8.06-.41-1.02-1.18-1.92-2.88-1.92-.41,0-.72,0-.77.06,0,0-.01.02-.02.04v-.74c.43,0,.85,0,1.25,0,8.64,0,12.44,1.34,14.75,4.22,1.08,1.34,1.85,3.45,1.85,6.08,0,3.71-.98,5.82-2.36,7.55-2.06,2.56-6.79,4.86-13.16,4.86Zm43.93,5.93c-2.79,3.47-7.24,5.96-12.64,5.96-.36,0-.8,0-1.3,0h0c-3.44-.01-9.27-.05-11.73-.05h-4.76c-.15,0-.15-.57,0-.57,2.35-.06,2.87-.11,2.97-.23.1-.11.2-.74.2-4.15v-9.83c0-5.28.05-9.6.05-14.66,0-2.27-.1-4.15-.26-4.32-.1-.11-.36-.17-3.02-.23-.1,0-.1-.57,0-.57,2.61.06,5.53.11,8.08.11,1.96,0,5.72-.08,8.46-.1h0c.55,0,1.06-.01,1.48-.01,5.27,0,9.98,1.99,13.05,5.79,2.24,2.78,3.43,6.14,3.43,10.62,0,5.34-1.74,9.37-4.03,12.21Z" style="fill:#fff;"/><path d="m133.35,176.28c.2,2.27.2,4.77.2,7.16v8.58c0,2.84.05,5.74.05,8.58s.05,5.79-.2,8.63c0,.11.67.11.67,0,.1-2.84,0-5.79,0-8.63v-8.58c0-2.84.1-5.74.1-8.58,0-2.33.1-4.94-.1-7.16-.05-.11-.72-.11-.72,0Z" style="fill:#fff;"/><path d="m134.37,176.28c.2,3.52.15,7.39.2,11.02s.05,7.33.05,10.96c-.05,3.64.1,7.38-.2,10.96,0,.11.72.11.72,0,.05-3.58-.05-7.33-.05-10.96s.05-7.33.1-10.96c0-3.64.2-7.5-.05-11.02,0-.11-.77-.11-.77,0Z" style="fill:#fff;"/></svg>